# xmcd
#
# Track frame offsets: 
#        150
#        19912
#        39047
#        71336
#        107041
#        131263
#        153937
#        186521
#        227834
#        260396
#        277696
#        305597
#
# Disc length: 4498 seconds
#
# Revision: 0
# Processed by: cddbd v1.5.1PL0 Copyright (c) Steve Scherf et al.
# Submitted via: ExactAudioCopy v0.95b2
#
DISCID=9411900c
DTITLE=BC and Lea - BC and Lea Live at Godfrey Daniels
DYEAR=2005
DGENRE=Blues
TTITLE0=Woman Be Wise
TTITLE1=See See Rider
TTITLE2=Since I Fell For You
TTITLE3=Love Me Like A Man
TTITLE4=Nobody's Fault But Mine
TTITLE5=Rock Me Baby
TTITLE6=Summertime
TTITLE7=Use Me
TTITLE8=Hoochie Coochie Man
TTITLE9=Hallelujah I Love Him So
TTITLE10=What'd I Say
TTITLE11=You Are My Sunshine
EXTD=
EXTT0=
EXTT1=
EXTT2=
EXTT3=
EXTT4=
EXTT5=
EXTT6=
EXTT7=
EXTT8=
EXTT9=
EXTT10=
EXTT11=
PLAYORDER=
